<?xml version="1.0" encoding="UTF-8"?>
<!DOCTYPE svg PUBLIC "-//W3C//DTD SVG 1.1//EN" "http://www.w3.org/Graphics/SVG/1.1/DTD/svg11.dtd">
<!-- Creator: CorelDRAW X7 -->
<svg xmlns="http://www.w3.org/2000/svg" xml:space="preserve" width="130.402mm" height="150mm" version="1.1" style="shape-rendering:geometricPrecision; text-rendering:geometricPrecision; image-rendering:optimizeQuality; fill-rule:evenodd; clip-rule:evenodd"
viewBox="0 0 13040 15000"
 xmlns:xlink="http://www.w3.org/1999/xlink">
 <defs>
  <style type="text/css">
   <![CDATA[
    .fil4 {fill:#FECC00;fill-rule:nonzero}
    .fil2 {fill:#E54423;fill-rule:nonzero}
    .fil3 {fill:#E67E22;fill-rule:nonzero}
    .fil0 {fill:#5563AA;fill-rule:nonzero}
    .fil1 {fill:#008DD2;fill-rule:nonzero}
   ]]>
  </style>
 </defs>
 <g id="Copy_x0020_of_x0020_Layer_x0020_1">
  <metadata id="CorelCorpID_0Corel-Layer"/>
  <path id="path22" class="fil0" d="M12290 7384l-4483 -7333 -4155 7284c-967,1543 -1051,3550 -35,5211 1445,2363 4557,3121 6952,1697 2395,-1425 3165,-4494 1721,-6859z"/>
  <path id="path22_0" class="fil0" d="M9448 7314l-4483 -7333 -4155 7284c-967,1542 -1051,3550 -35,5211 1445,2363 4557,3121 6952,1697 2394,-1425 3165,-4494 1721,-6859z"/>
 </g>
 <g id="Copy_x0020_of_x0020_Layer_x0020_3">
  <metadata id="CorelCorpID_1Corel-Layer"/>
  <path id="path22_1" class="fil1" d="M5546 931l-3613 6334c-967,1542 -1051,3550 -35,5211 847,1385 2266,2218 3778,2384 705,-77 1404,-303 2051,-687 2394,-1425 3165,-4494 1721,-6859l-3902 -6383z"/>
  <path id="path22_2" class="fil1" d="M7309 931l-3612 6334c-968,1542 -1052,3550 -36,5211 847,1385 2266,2218 3779,2384 704,-77 1403,-303 2050,-687 2395,-1425 3165,-4494 1721,-6859l-3902 -6383z"/>
 </g>
 <g id="Copy_x0020_of_x0020_Layer_x0020_4">
  <metadata id="CorelCorpID_2Corel-Layer"/>
  <path id="path22_3" class="fil2" d="M6456 2420l-2804 4915c-967,1543 -1051,3550 -35,5211 660,1079 1667,1823 2795,2178 452,-119 894,-301 1315,-551 2394,-1425 3165,-4494 1721,-6859l-2992 -4894z"/>
  <path id="path22_4" class="fil3" d="M6480 6160l-1941 3402c-670,1068 -728,2458 -25,3608 457,747 1154,1262 1935,1508 313,-83 619,-209 911,-382 1657,-987 2191,-3111 1191,-4748l-2071 -3388z"/>
  <path id="path22_5" class="fil4" d="M6501 9538l-1174 2057c-404,646 -440,1486 -14,2182 276,451 697,763 1169,911 190,-50 375,-126 551,-231 1002,-596 1325,-1881 720,-2870l-1252 -2049z"/>
 </g>
</svg>
